<svg width="24" height="22" viewBox="0 0 24 22" fill="none" xmlns="http://www.w3.org/2000/svg">
<path d="M11.5244 1.08203C11.6648 0.650115 12.246 0.62295 12.4414 1.00098L12.4756 1.08203L14.4434 7.1377C14.6443 7.75549 15.2204 8.17383 15.8701 8.17383H22.2373C22.6913 8.17398 22.8968 8.71887 22.5977 9.02148L22.5312 9.07812L17.3799 12.8213C16.887 13.1794 16.6623 13.7967 16.8018 14.3818L16.835 14.498L18.8027 20.5537C18.943 20.9857 18.4877 21.3495 18.1074 21.1582L18.0332 21.1123L12.8818 17.3701C12.3889 17.012 11.7321 16.9893 11.2188 17.3027L11.1182 17.3701L5.9668 21.1123C5.59931 21.3793 5.11339 21.0595 5.17773 20.6387L5.19727 20.5537L7.16504 14.498C7.35336 13.9185 7.17179 13.2869 6.71484 12.8955L6.62012 12.8213L1.46875 9.07812C1.07726 8.79339 1.27857 8.174 1.7627 8.17383H8.12988C8.73902 8.17383 9.28347 7.80605 9.51465 7.25098L9.55664 7.1377L11.5244 1.08203Z" stroke="#061E40"/>
</svg>
