<svg width="38" height="38" viewBox="0 0 38 38" fill="none" xmlns="http://www.w3.org/2000/svg">
<g filter="url(#filter0_d_4039_2252)">
<circle cx="19" cy="17" r="17" fill="#CF3D58"/>
<g clip-path="url(#clip0_4039_2252)">
<path d="M17.0903 8.64006L9.99029 20.9401C9.30029 22.1301 10.1603 23.6201 11.5403 23.6201H25.7303C27.1103 23.6201 27.9703 22.1301 27.2803 20.9401L20.1803 8.64006C19.4903 7.45006 17.7703 7.45006 17.0903 8.64006Z" stroke="white" stroke-width="1.5" stroke-linecap="round" stroke-linejoin="round"/>
<path d="M18.6396 18.0001V13.3701" stroke="white" stroke-width="1.5" stroke-linecap="round" stroke-linejoin="round"/>
<path d="M18.6399 21.4302C19.1977 21.4302 19.6499 20.978 19.6499 20.4202C19.6499 19.8623 19.1977 19.4102 18.6399 19.4102C18.0821 19.4102 17.6299 19.8623 17.6299 20.4202C17.6299 20.978 18.0821 21.4302 18.6399 21.4302Z" fill="white"/>
</g>
</g>
<defs>
<filter id="filter0_d_4039_2252" x="0" y="0" width="38" height="38" filterUnits="userSpaceOnUse" color-interpolation-filters="sRGB">
<feFlood flood-opacity="0" result="BackgroundImageFix"/>
<feColorMatrix in="SourceAlpha" type="matrix" values="0 0 0 0 0 0 0 0 0 0 0 0 0 0 0 0 0 0 127 0" result="hardAlpha"/>
<feOffset dy="2"/>
<feGaussianBlur stdDeviation="1"/>
<feComposite in2="hardAlpha" operator="out"/>
<feColorMatrix type="matrix" values="0 0 0 0 0.929412 0 0 0 0 0 0 0 0 0 0.168627 0 0 0 0.2 0"/>
<feBlend mode="normal" in2="BackgroundImageFix" result="effect1_dropShadow_4039_2252"/>
<feBlend mode="normal" in="SourceGraphic" in2="effect1_dropShadow_4039_2252" result="shape"/>
</filter>
<clipPath id="clip0_4039_2252">
<rect width="19.27" height="17.37" fill="white" transform="translate(9 7)"/>
</clipPath>
</defs>
</svg>
