<svg width="100" height="100" viewBox="0 0 100 100" fill="none" xmlns="http://www.w3.org/2000/svg">
<g clip-path="url(#clip0_1_487)">
<path d="M16.0095 85.29C0.639527 70.91 -4.22047 47.64 5.57953 27.8C17.5695 3.54 46.9595 -6.41 71.2195 5.58C95.4795 17.57 105.43 46.95 93.4395 71.22C81.4495 95.48 52.0695 105.43 27.7995 93.44" stroke="#001E40" stroke-linecap="round" stroke-linejoin="round"/>
<path d="M68.9405 64.01C68.8205 64.01 68.6905 64.01 68.5705 63.98L37.9405 59.55C36.5305 59.35 35.5505 58.03 35.7505 56.62L41.4505 17.23C41.6305 15.97 42.7305 15.02 44.0005 15.02C44.1205 15.02 44.2505 15.02 44.3705 15.05L62.0005 17.6C62.6805 17.7 63.2905 18.06 63.7005 18.61L74.8205 33.49C75.2305 34.04 75.4105 34.72 75.3105 35.41L71.4905 61.81C71.3105 63.07 70.2105 64.02 68.9405 64.02V64.01Z" fill="white"/>
<path d="M44.0002 15.52C44.1002 15.52 44.2002 15.52 44.3002 15.54L61.9302 18.09C62.4802 18.17 62.9702 18.46 63.3002 18.9L74.4202 33.78C74.7502 34.23 74.8902 34.77 74.8102 35.32L70.9902 61.72C70.8402 62.74 69.9602 63.5 68.9302 63.5C68.8302 63.5 68.7302 63.5 68.6302 63.48L38.0002 59.05C37.4502 58.97 36.9602 58.68 36.6302 58.24C36.3002 57.8 36.1602 57.25 36.2402 56.7L41.9402 17.31C42.0902 16.29 42.9702 15.53 44.0002 15.53V15.52ZM44.0002 14.53C42.4902 14.53 41.1802 15.64 40.9502 17.17L35.2502 56.56C35.0102 58.24 36.1702 59.81 37.8602 60.05L68.4902 64.48C68.6402 64.5 68.7902 64.51 68.9402 64.51C70.4502 64.51 71.7602 63.4 71.9902 61.87L75.8102 35.47C75.9302 34.66 75.7202 33.84 75.2302 33.18L64.1102 18.3C63.6202 17.65 62.8902 17.21 62.0802 17.09L44.4502 14.54C44.3002 14.52 44.1502 14.51 44.0002 14.51V14.53Z" fill="#001E40"/>
<path d="M75.3606 34.62L63.8906 32.96C62.0606 32.7 60.7906 31 61.0606 29.17L62.1406 21.72" stroke="#001E40" stroke-miterlimit="10" stroke-linecap="round"/>
<path d="M55.7803 39.61L68.1703 41.4" stroke="#001E40" stroke-miterlimit="10" stroke-linecap="round"/>
<path d="M46.1699 51.74L66.2599 54.65" stroke="#001E40" stroke-miterlimit="10" stroke-linecap="round"/>
<path d="M62.1904 47.3L67.2204 48.02" stroke="#001E40" stroke-miterlimit="10" stroke-linecap="round"/>
<path d="M43.75 44.63L58.51 46.76" stroke="#001E40" stroke-miterlimit="10" stroke-linecap="round"/>
<path d="M79.1904 50.05L80.1004 57.83L86.3904 53.16L79.1904 50.05Z" fill="#2A5EED"/>
<path d="M83.0597 45.39C84.0759 45.39 84.8997 44.5662 84.8997 43.55C84.8997 42.5338 84.0759 41.71 83.0597 41.71C82.0435 41.71 81.2197 42.5338 81.2197 43.55C81.2197 44.5662 82.0435 45.39 83.0597 45.39Z" fill="#061E40"/>
<path d="M32.1496 27.99C33.1658 27.99 33.9896 27.1662 33.9896 26.15C33.9896 25.1338 33.1658 24.31 32.1496 24.31C31.1334 24.31 30.3096 25.1338 30.3096 26.15C30.3096 27.1662 31.1334 27.99 32.1496 27.99Z" fill="#061E40"/>
<path d="M58.6702 74.75L50.9502 67.04" stroke="#001E40" stroke-width="3" stroke-miterlimit="10" stroke-linecap="round"/>
<path d="M36.9902 72.82C47.8979 72.82 56.7402 63.9776 56.7402 53.07C56.7402 42.1624 47.8979 33.32 36.9902 33.32C26.0826 33.32 17.2402 42.1624 17.2402 53.07C17.2402 63.9776 26.0826 72.82 36.9902 72.82Z" fill="#2A5EED"/>
<path d="M36.9903 65.49C43.8497 65.49 49.4103 59.9294 49.4103 53.07C49.4103 46.2106 43.8497 40.65 36.9903 40.65C30.1309 40.65 24.5703 46.2106 24.5703 53.07C24.5703 59.9294 30.1309 65.49 36.9903 65.49Z" fill="white"/>
<path d="M46.9703 49.51C46.9703 51.7 45.1903 53.48 43.0003 53.48C40.8103 53.48 39.0303 51.7 39.0303 49.51C39.0303 47.32 40.8103 45.54 43.0003 45.54C45.1903 45.54 46.9703 47.32 46.9703 49.51Z" fill="#E0E9FC"/>
<path d="M47.3505 36.54C56.5805 42.36 59.3305 54.56 53.5105 63.78C47.6905 73.01 35.4905 75.76 26.2705 69.94" stroke="#001E40" stroke-miterlimit="10" stroke-linecap="round"/>
<path d="M58.868 68.7146C57.1497 66.9963 54.3638 66.9963 52.6455 68.7146C50.9271 70.4329 50.9271 73.2188 52.6455 74.9371L60.4873 82.779C62.2056 84.4973 64.9915 84.4973 66.7098 82.7789C68.4281 81.0606 68.4281 78.2747 66.7098 76.5564L58.868 68.7146Z" fill="#7AD94A"/>
<path d="M52.6406 74.95C50.9206 73.23 50.9206 70.45 52.6406 68.73C54.3606 67.01 57.1406 67.01 58.8606 68.73L66.7006 76.57C68.4206 78.29 68.4206 81.07 66.7006 82.79" stroke="#001E40" stroke-miterlimit="10" stroke-linecap="round"/>
</g>
<defs>
<clipPath id="clip0_1_487">
<rect width="99.02" height="99.02" fill="white"/>
</clipPath>
</defs>
</svg>
