<svg width="38" height="38" viewBox="0 0 38 38" fill="none" xmlns="http://www.w3.org/2000/svg">
<g id="Icons / 34 / Guide" filter="url(#filter0_d_2001_1994)">
<circle id="Ellipse 530" cx="19" cy="17" r="17" fill="#005EEE"/>
<g id="Frame" clip-path="url(#clip0_2001_1994)">
<path id="Vector" d="M25.0099 15.3801C25.0099 11.8701 21.7999 9.12008 18.1699 9.88008C16.0299 10.3201 14.3099 12.0501 13.8699 14.1801C13.3799 16.5701 14.3999 18.7601 16.1399 19.9801C16.8899 20.5101 17.3199 21.3701 17.3199 22.2901V23.3701C17.3199 24.3001 17.9099 25.1801 18.8099 25.4201C20.1799 25.7901 21.4199 24.7501 21.4199 23.4401V22.2901C21.4199 21.3701 21.8699 20.5001 22.6199 19.9701C24.0599 18.9501 24.9999 17.2801 24.9999 15.3801H25.0099Z" stroke="white" stroke-width="1.5" stroke-linecap="round" stroke-linejoin="round"/>
<path id="Vector_2" d="M17.6504 22H21.1104" stroke="white" stroke-width="1.5" stroke-linecap="round" stroke-linejoin="round"/>
</g>
</g>
<defs>
<filter id="filter0_d_2001_1994" x="0" y="0" width="38" height="38" filterUnits="userSpaceOnUse" color-interpolation-filters="sRGB">
<feFlood flood-opacity="0" result="BackgroundImageFix"/>
<feColorMatrix in="SourceAlpha" type="matrix" values="0 0 0 0 0 0 0 0 0 0 0 0 0 0 0 0 0 0 127 0" result="hardAlpha"/>
<feOffset dy="2"/>
<feGaussianBlur stdDeviation="1"/>
<feComposite in2="hardAlpha" operator="out"/>
<feColorMatrix type="matrix" values="0 0 0 0 0 0 0 0 0 0.368627 0 0 0 0 0.933333 0 0 0 0.2 0"/>
<feBlend mode="normal" in2="BackgroundImageFix" result="effect1_dropShadow_2001_1994"/>
<feBlend mode="normal" in="SourceGraphic" in2="effect1_dropShadow_2001_1994" result="shape"/>
</filter>
<clipPath id="clip0_2001_1994">
<rect width="12.76" height="17.24" fill="white" transform="translate(13 9)"/>
</clipPath>
</defs>
</svg>
