<svg width="100" height="100" viewBox="0 0 100 100" fill="none" xmlns="http://www.w3.org/2000/svg">
<g clip-path="url(#clip0_2001_2166)">
<path d="M49.51 73.98C63.0244 73.98 73.98 63.0244 73.98 49.51C73.98 35.9956 63.0244 25.04 49.51 25.04C35.9956 25.04 25.04 35.9956 25.04 49.51C25.04 63.0244 35.9956 73.98 49.51 73.98Z" fill="#2A5EEB"/>
<path d="M59.0003 40.7303L45.7003 54.0303L40.0203 48.3503C39.6703 48.0003 39.0903 48.0003 38.7403 48.3503L36.7303 50.3603C36.3803 50.7103 36.3803 51.2903 36.7303 51.6403L42.4103 57.3203L45.0603 59.9703C45.4103 60.3203 45.9903 60.3203 46.3403 59.9703L48.9903 57.3203L62.2903 44.0203C62.6403 43.6703 62.6403 43.0903 62.2903 42.7403L60.2803 40.7303C59.9303 40.3803 59.3503 40.3803 59.0003 40.7303Z" fill="white"/>
<path d="M64.6904 59.21L64.2504 62.17C64.0104 63.79 65.1204 65.3 66.7404 65.54C68.3604 65.78 69.4804 67.29 69.2304 68.91L68.7904 71.87" stroke="#061E40" stroke-miterlimit="10"/>
<path d="M19.8204 39.4802L21.3704 36.9202C22.2204 35.5202 21.7704 33.6902 20.3704 32.8402C18.9704 31.9902 18.5204 30.1702 19.3704 28.7602L20.9204 26.2002" stroke="#061E40" stroke-miterlimit="10"/>
<path d="M13.8103 83.0897C-0.609732 67.7697 -3.99973 44.2397 7.04027 25.0597C20.5403 1.6097 50.5003 -6.4603 73.9503 7.0397C97.4003 20.5397 105.47 50.4997 91.9703 73.9497C78.4703 97.3997 48.5103 105.47 25.0603 91.9697" stroke="#061E40" stroke-linecap="round" stroke-linejoin="round"/>
<path d="M24.0399 82.1697C25.625 82.1697 26.9099 80.8847 26.9099 79.2997C26.9099 77.7146 25.625 76.4297 24.0399 76.4297C22.4549 76.4297 21.1699 77.7146 21.1699 79.2997C21.1699 80.8847 22.4549 82.1697 24.0399 82.1697Z" stroke="#061E40" stroke-linecap="round" stroke-linejoin="round"/>
<path d="M78.4404 39.0704L86.1904 40.2304L83.3204 32.9404L78.4404 39.0704Z" fill="#F86454"/>
<path d="M29.8302 20.5999C30.8464 20.5999 31.6702 19.7761 31.6702 18.7599C31.6702 17.7437 30.8464 16.9199 29.8302 16.9199C28.814 16.9199 27.9902 17.7437 27.9902 18.7599C27.9902 19.7761 28.814 20.5999 29.8302 20.5999Z" fill="#F86454"/>
<path d="M82.3097 72.1097C83.3259 72.1097 84.1497 71.2859 84.1497 70.2697C84.1497 69.2535 83.3259 68.4297 82.3097 68.4297C81.2935 68.4297 80.4697 69.2535 80.4697 70.2697C80.4697 71.2859 81.2935 72.1097 82.3097 72.1097Z" fill="#F86454"/>
</g>
<defs>
<clipPath id="clip0_2001_2166">
<rect width="99.02" height="99.02" fill="white"/>
</clipPath>
</defs>
</svg>
