<svg width="100" height="100" viewBox="0 0 100 100" fill="none" xmlns="http://www.w3.org/2000/svg">
<g clip-path="url(#clip0_2718_2646)">
<path d="M47.4697 30.4101L48.0397 24.3301L71.6097 26.5401L67.8397 66.7901L56.3497 65.7101" stroke="#061E40" stroke-linecap="round" stroke-linejoin="round"/>
<path d="M44.58 35.94L45.93 21.48C46.15 19.12 48.26 17.37 50.62 17.59L70.33 19.44C72.69 19.66 74.44 21.77 74.22 24.13L69.96 69.65C69.74 72.01 67.63 73.76 65.27 73.54L60.65 73.11" stroke="#061E40" stroke-linecap="round" stroke-linejoin="round"/>
<path d="M14.4896 83.7999C8.96957 78.1599 4.96957 71.3399 2.69957 63.9999C1.20957 59.1699 0.459567 54.1199 0.499567 49.0199C0.569567 41.1899 2.52957 33.2699 6.55957 25.9299C19.5896 2.19989 49.3796 -6.47011 73.0996 6.55989C96.8196 19.5899 105.49 49.3799 92.4596 73.0999C79.4296 96.8199 49.6396 105.49 25.9196 92.4599" stroke="#061E40" stroke-linecap="round" stroke-linejoin="round"/>
<path d="M79.4004 55.4499L86.9704 53.4199L81.4204 47.8799L79.4004 55.4499Z" fill="#2A5EEB"/>
<path d="M20.7804 33.14C21.7966 33.14 22.6204 32.3162 22.6204 31.3C22.6204 30.2838 21.7966 29.46 20.7804 29.46C19.7642 29.46 18.9404 30.2838 18.9404 31.3C18.9404 32.3162 19.7642 33.14 20.7804 33.14Z" fill="#061E40"/>
<path d="M27 82.51L33.72 80.91L37.55 86.66L45.93 65.37L35.37 61.22L27 82.51Z" fill="#2A5EEB"/>
<path d="M59.43 82.51L52.71 80.91L48.88 86.66L40.5 65.37L51.06 61.22L59.43 82.51Z" fill="#2A5EEB"/>
<path d="M26.7896 51.81C26.7896 54.31 23.4396 57.46 24.3396 59.63C25.2396 61.8 29.8996 61.73 31.5996 63.43C33.2996 65.13 33.1396 69.76 35.3996 70.69C37.6596 71.62 40.7196 68.24 43.2196 68.24C45.7196 68.24 48.8696 71.59 51.0396 70.69C53.2096 69.79 53.1396 65.13 54.8396 63.43C56.5396 61.73 61.1696 61.89 62.0996 59.63C63.0296 57.37 59.6496 54.31 59.6496 51.81C59.6496 49.31 62.9996 46.16 62.0996 43.99C61.1996 41.82 56.5396 41.89 54.8396 40.19C53.1396 38.49 53.2996 33.86 51.0396 32.93C48.7796 32 45.7196 35.38 43.2196 35.38C40.7196 35.38 37.5696 32.03 35.3996 32.93C33.2296 33.83 33.2996 38.49 31.5996 40.19C29.8996 41.89 25.2696 41.73 24.3396 43.99C23.4096 46.25 26.7896 49.31 26.7896 51.81Z" fill="#7AD94A"/>
<path d="M43.2693 60.76C48.2343 60.76 52.2593 56.7351 52.2593 51.77C52.2593 46.805 48.2343 42.78 43.2693 42.78C38.3043 42.78 34.2793 46.805 34.2793 51.77C34.2793 56.7351 38.3043 60.76 43.2693 60.76Z" fill="white"/>
<path d="M29.74 27.24C31.3251 27.24 32.61 25.9551 32.61 24.37C32.61 22.7849 31.3251 21.5 29.74 21.5C28.1549 21.5 26.87 22.7849 26.87 24.37C26.87 25.9551 28.1549 27.24 29.74 27.24Z" stroke="#061E40" stroke-linecap="round" stroke-linejoin="round"/>
<path d="M39.67 51.4001L43.01 54.7401L52.19 45.5601" stroke="#061E40" stroke-width="2" stroke-linecap="round" stroke-linejoin="round"/>
</g>
<defs>
<clipPath id="clip0_2718_2646">
<rect width="99.02" height="99.02" fill="white"/>
</clipPath>
</defs>
</svg>
