<svg width="24" height="24" viewBox="0 0 24 24" fill="none" xmlns="http://www.w3.org/2000/svg">
<g id="? / Desktop">
<circle id="Ellipse 528" opacity="0.6" cx="12" cy="12" r="11.5" stroke="#001E40"/>
<path id="Lable" d="M10.9706 14.608C10.8852 14.608 10.8106 14.5813 10.7466 14.528C10.6826 14.464 10.6506 14.3893 10.6506 14.304C10.6506 14.24 10.6506 14.176 10.6506 14.112C10.6506 14.048 10.6506 13.9893 10.6506 13.936C10.7146 13.5627 10.8372 13.2267 11.0186 12.928C11.2106 12.6187 11.4292 12.336 11.6746 12.08C11.9306 11.824 12.1759 11.584 12.4106 11.36C12.6452 11.136 12.8426 10.9173 13.0026 10.704C13.1732 10.48 13.2639 10.256 13.2746 10.032C13.2959 9.79733 13.2479 9.6 13.1306 9.44C13.0239 9.28 12.8692 9.15733 12.6666 9.072C12.4746 8.98667 12.2666 8.944 12.0426 8.944C11.6159 8.944 11.2799 9.04533 11.0346 9.248C10.7892 9.45067 10.6132 9.74933 10.5066 10.144C10.4746 10.2613 10.4212 10.3573 10.3466 10.432C10.2719 10.496 10.1599 10.528 10.0106 10.528H8.05856C7.9519 10.528 7.86123 10.4907 7.78656 10.416C7.7119 10.3307 7.67456 10.224 7.67456 10.096C7.68523 9.66933 7.78656 9.25333 7.97856 8.848C8.18123 8.44267 8.46923 8.07467 8.84256 7.744C9.22656 7.40267 9.70123 7.136 10.2666 6.944C10.8319 6.74133 11.4879 6.64 12.2346 6.64C13.0346 6.64 13.6959 6.736 14.2186 6.928C14.7519 7.12 15.1679 7.37067 15.4666 7.68C15.7759 7.98933 15.9946 8.32 16.1226 8.672C16.2506 9.01333 16.3092 9.33333 16.2986 9.632C16.2772 10.016 16.1972 10.3627 16.0586 10.672C15.9199 10.9813 15.7439 11.2693 15.5306 11.536C15.3279 11.792 15.1092 12.0427 14.8746 12.288C14.6506 12.5227 14.4426 12.7627 14.2506 13.008C14.0586 13.2427 13.9146 13.4933 13.8186 13.76C13.7972 13.8347 13.7759 13.9093 13.7546 13.984C13.7332 14.048 13.7172 14.1173 13.7066 14.192C13.6426 14.3307 13.5732 14.4373 13.4986 14.512C13.4346 14.576 13.3386 14.608 13.2106 14.608H10.9706ZM11.0026 18C10.8852 18 10.7892 17.9627 10.7146 17.888C10.6399 17.8027 10.6026 17.7067 10.6026 17.6V15.776C10.6026 15.6693 10.6399 15.5787 10.7146 15.504C10.7892 15.4187 10.8852 15.376 11.0026 15.376H13.0506C13.1679 15.376 13.2639 15.4187 13.3386 15.504C13.4239 15.5787 13.4666 15.6693 13.4666 15.776V17.6C13.4666 17.7067 13.4239 17.8027 13.3386 17.888C13.2639 17.9627 13.1679 18 13.0506 18H11.0026Z" fill="#001E40"/>
</g>
</svg>
